HIERARCHY
ROOT Hips
{
 OFFSET 0.000000 0.000000 0.000000
 CHANNELS 6 Xposition Yposition Zposition Yrotation Xrotation Zrotation
 JOINT Chest
 {
  OFFSET 0.000000 9.581000 -0.001100
  CHANNELS 3 Yrotation Xrotation Zrotation
  JOINT Chest2
  {
   OFFSET 0.000000 9.561100 0.002200
   CHANNELS 3 Yrotation Xrotation Zrotation
   JOINT Chest3
   {
    OFFSET 0.000000 9.521100 0.000000
    CHANNELS 3 Yrotation Xrotation Zrotation
    JOINT Chest4
    {
     OFFSET 0.000000 9.511400 0.000000
     CHANNELS 3 Yrotation Xrotation Zrotation
     JOINT Neck
     {
      OFFSET 0.000000 14.375100 0.000000
      CHANNELS 3 Yrotation Xrotation Zrotation
      JOINT Head
      {
       OFFSET 0.000000 8.901200 0.004600
       CHANNELS 3 Yrotation Xrotation Zrotation
       End Site
       {
        OFFSET 0.000000 16.962200 0.002400
       }
      }
     }
     JOINT RightCollar
     {
      OFFSET -2.920100 9.518800 0.000000
      CHANNELS 3 Yrotation Xrotation Zrotation
      JOINT RightShoulder
      {
       OFFSET -13.664500 0.000000 0.000000
       CHANNELS 3 Yrotation Xrotation Zrotation
       JOINT RightElbow
       {
        OFFSET 0.000000 -29.999200 0.000000
        CHANNELS 3 Yrotation Xrotation Zrotation
        JOINT RightWrist
        {
         OFFSET 0.000000 -24.253600 0.000000
         CHANNELS 3 Yrotation Xrotation Zrotation
         End Site
         {
          OFFSET 0.000000 -17.918900 0.000000
         }
        }
       }
      }
     }
     JOINT LeftCollar
     {
      OFFSET 2.920100 9.518800 0.000000
      CHANNELS 3 Yrotation Xrotation Zrotation
      JOINT LeftShoulder
      {
       OFFSET 13.664500 0.000000 0.000000
       CHANNELS 3 Yrotation Xrotation Zrotation
       JOINT LeftElbow
       {
        OFFSET 0.000000 -29.999200 0.000000
        CHANNELS 3 Yrotation Xrotation Zrotation
        JOINT LeftWrist
        {
         OFFSET 0.000000 -24.253600 0.000000
         CHANNELS 3 Yrotation Xrotation Zrotation
         End Site
         {
          OFFSET 0.000000 -17.918900 0.000000
         }
        }
       }
      }
     }
    }
   }
  }
 }
 JOINT RightHip
 {
  OFFSET -7.797300 0.005300 0.000500
  CHANNELS 3 Yrotation Xrotation Zrotation
  JOINT RightKnee
  {
   OFFSET 0.000000 -40.663400 -0.000500
   CHANNELS 3 Yrotation Xrotation Zrotation
   JOINT RightAnkle
   {
    OFFSET 0.000000 -39.523700 -0.000900
    CHANNELS 3 Yrotation Xrotation Zrotation
    JOINT RightToe
    {
     OFFSET 0.000000 -6.418000 14.485300
     CHANNELS 3 Yrotation Xrotation Zrotation
     End Site
     {
      OFFSET 0.000000 -1.465200 6.326400
     }
    }
   }
  }
 }
 JOINT LeftHip
 {
  OFFSET 7.797300 0.005300 0.000500
  CHANNELS 3 Yrotation Xrotation Zrotation
  JOINT LeftKnee
  {
   OFFSET 0.000000 -40.663400 -0.000500
   CHANNELS 3 Yrotation Xrotation Zrotation
   JOINT LeftAnkle
   {
    OFFSET 0.000000 -39.523700 -0.000900
    CHANNELS 3 Yrotation Xrotation Zrotation
    JOINT LeftToe
    {
     OFFSET 0.000000 -6.418000 14.485300
     CHANNELS 3 Yrotation Xrotation Zrotation
     End Site
     {
      OFFSET 0.000000 -1.465200 6.326400
     }
    }
   }
  }
 }
}
MOTION
Frames: 16
Frame Time: 0.008333
0.000000 86.422400 0.000000 0.000000 -5.767877 0.000000 0.000000 11.653817 0.000000 0.000000 -5.885947 0.000000 0.000000 -0.000000 0.000000 0.000000 -0.000000 0.000000 0.000000 12.528835 0.000000 0.000000 0.711642 0.000000 0.000000 -0.000000 0.000000 0.000000 0.000000 -90.000000 0.000000 -2.309062 0.000000 0.000000 2.309062 0.000000 0.000000 -0.000000 0.000000 0.000000 -0.000000 90.000000 0.000000 -2.309062 0.000000 0.000000 2.309062 0.000000 0.000000 8.520406 0.000000 0.000000 1.905762 0.000000 -0.000000 -4.658285 0.000000 0.000000 -0.000000 0.000000 0.000000 8.520406 0.000000 0.000000 1.905762 0.000000 -0.000000 -4.658285 0.000000 0.000000 -0.000000 0.000000
-15.317479 126.908270 20.541006 -170.551166 -49.772997 -4.766408 -2.412519 25.736049 -0.314419 -0.375041 4.211913 0.023339 -0.598216 6.713976 0.024111 -1.947134 21.210913 -0.175502 6.372962 17.630457 6.560515 5.471407 -6.791687 5.682598 8.982491 0.466460 3.336589 14.842176 -34.756918 -2.458135 -92.284583 -46.483153 150.311280 -5.941779 7.756111 8.717326 -11.375266 -1.984650 -0.921931 -22.020486 -31.197385 6.016153 15.224183 -21.353279 -67.939857 -2.301437 5.035006 -26.305498 -5.058311 -22.213671 -1.238343 -5.643572 77.251046 -3.974193 11.049703 -10.005733 1.385860 0.001374 -0.002011 0.000609 7.462523 4.659996 4.222402 129.999858 65.368620 151.313476 3.721191 14.531401 6.187043 0.002323 -0.003449 0.001029
-15.317532 126.908171 20.541205 -170.544760 -49.770747 -4.775283 -2.405351 25.733762 -0.320585 -0.373679 4.210865 0.020302 -0.595608 6.711712 0.023948 -1.943329 21.212301 -0.163242 6.338193 17.598979 6.551125 5.385550 -6.893261 5.673724 8.984438 0.448060 3.322150 14.815874 -34.746932 -2.426464 -92.276807 -46.488661 150.316780 -5.943054 7.749778 8.707273 -11.374863 -1.991101 -0.915791 -22.017582 -31.199579 6.007059 15.232445 -21.367701 -67.946699 -2.298699 5.050509 -26.303526 -5.056300 -22.211870 -1.226282 -5.674621 77.251872 -4.001262 11.016284 -10.009834 1.385087 0.000062 -0.001364 0.000027 7.458604 4.664740 4.230929 130.011786 65.365941 151.318450 3.716997 14.497510 6.212868 0.001858 -0.003342 0.000823
-15.317814 126.908375 20.541263 -170.544064 -49.771707 -4.778898 -2.402956 25.734679 -0.319366 -0.372273 4.211463 0.011785 -0.593725 6.711116 0.023647 -1.936969 21.208677 -0.161804 6.321839 17.586722 6.553758 5.323765 -6.952037 5.654495 8.981655 0.438082 3.319867 14.815843 -34.739731 -2.428761 -92.276324 -46.478746 150.320925 -5.942690 7.744690 8.698542 -11.368479 -2.003794 -0.924108 -22.028523 -31.188115 6.013225 15.230167 -21.375385 -67.948830 -2.297781 5.051054 -26.300466 -5.051200 -22.208161 -1.218886 -5.703546 77.252448 -4.029062 11.012765 -10.011590 1.378250 0.000043 -0.000982 0.000019 7.455323 4.673000 4.237764 130.006148 65.366733 151.307678 3.711439 14.485277 6.216106 0.002140 -0.002149 0.000948
-15.316979 126.908057 20.541832 -170.550452 -49.769347 -4.782953 -2.394963 25.733903 -0.320821 -0.368432 4.212832 0.012572 -0.591800 6.711810 0.022886 -1.932066 21.204009 -0.161129 6.306293 17.573871 6.555191 5.277776 -6.974687 5.633734 8.976448 0.425514 3.318004 14.823337 -34.734592 -2.437118 -92.272511 -46.469835 150.319166 -5.940068 7.745075 8.685020 -11.369035 -2.005834 -0.917003 -22.028325 -31.194408 6.010021 15.232145 -21.389229 -67.948463 -2.296189 5.055579 -26.301324 -5.047574 -22.207491 -1.207732 -5.713993 77.250819 -4.037889 11.016692 -10.012913 1.377513 -0.000631 -0.000632 -0.000279 7.458161 4.675952 4.252193 130.010081 65.364514 151.304464 3.711117 14.466924 6.206150 -0.001195 0.000481 -0.000530
-15.316426 126.907980 20.542376 -170.551149 -49.769806 -4.788909 -2.385227 25.741274 -0.329435 -0.369900 4.212126 0.021559 -0.590049 6.714250 0.021527 -1.921631 21.212701 -0.180755 6.276013 17.540068 6.559544 5.244771 -6.973257 5.622820 8.964733 0.391684 3.336304 14.856962 -34.741054 -2.479011 -92.275424 -46.445684 150.302017 -5.951216 7.752523 8.668096 -11.377110 -2.021390 -0.885064 -22.029645 -31.202464 6.009126 15.236275 -21.396880 -67.944658 -2.301898 5.059716 -26.306136 -5.045240 -22.204450 -1.198894 -5.731135 77.250389 -4.051693 11.021783 -10.013816 1.371855 -0.001026 -0.001177 -0.000454 7.455844 4.679987 4.263509 130.015218 65.367167 151.306073 3.709069 14.463223 6.199756 -0.000248 0.001391 -0.000110
-15.315873 126.907668 20.543289 -170.557109 -49.770052 -4.789319 -2.376478 25.746131 -0.331030 -0.368861 4.214810 0.020367 -0.588408 6.718310 0.019678 -1.916394 21.218163 -0.186075 6.229873 17.532495 6.528585 5.225430 -6.970228 5.623215 8.959738 0.366272 3.346426 14.869555 -34.743094 -2.491450 -92.263759 -46.462316 150.299100 -5.961706 7.728604 8.642876 -11.379865 -2.049563 -0.870946 -22.034972 -31.201749 6.009594 15.237827 -21.388242 -67.937609 -2.307945 5.059272 -26.308577 -5.038923 -22.201777 -1.188563 -5.741658 77.248860 -4.062119 11.031972 -10.014974 1.362657 0.000291 -0.000338 0.000129 7.455174 4.684451 4.270163 130.014182 65.368583 151.301375 3.702965 14.455198 6.203252 0.000631 -0.000116 0.000280
-15.315964 126.907903 20.543915 -170.564736 -49.776530 -4.783561 -2.368103 25.755803 -0.338126 -0.367978 4.218227 0.019261 -0.586951 6.723432 0.017977 -1.911688 21.225027 -0.191042 6.215296 17.520544 6.528790 5.172217 -6.942511 5.602165 8.956003 0.337888 3.355188 14.869913 -34.740071 -2.488320 -92.260553 -46.468378 150.296422 -5.965307 7.724696 8.628296 -11.384130 -2.080593 -0.854983 -22.037325 -31.192452 6.009323 15.249947 -21.404277 -67.943368 -2.299259 5.071409 -26.303680 -5.031985 -22.194413 -1.184993 -5.762701 77.249258 -4.081220 11.037332 -10.016540 1.358032 0.000317 -0.000224 0.000141 7.455460 4.698664 4.270788 130.004139 65.371077 151.287154 3.704253 14.453814 6.186833 -0.000567 0.002345 -0.000251
-15.315437 126.909038 20.543893 -170.567840 -49.790727 -4.784252 -2.363315 25.772622 -0.342321 -0.366481 4.218921 0.021861 -0.587616 6.731570 0.013021 -1.909000 21.232063 -0.195408 6.185424 17.532164 6.506729 5.128502 -6.920029 5.593462 8.958054 0.305316 3.350982 14.879044 -34.738633 -2.492852 -92.269054 -46.458494 150.284628 -5.965033 7.730490 8.617134 -11.382537 -2.123190 -0.865437 -22.054143 -31.163544 6.029165 15.260892 -21.439851 -67.954507 -2.283214 5.082460 -26.305619 -5.029476 -22.177953 -1.176744 -5.791587 77.249291 -4.108576 11.038220 -10.018094 1.353055 -0.000754 -0.001013 -0.000334 7.456956 4.716393 4.276063 129.998703 65.371677 151.280670 3.702615 14.451405 6.191012 0.000604 0.001511 0.000267
-15.315094 126.908803 20.545103 -170.570001 -49.795611 -4.782110 -2.365097 25.779909 -0.350123 -0.362648 4.219391 0.023153 -0.591809 6.739608 0.009010 -1.909177 21.238605 -0.201329 6.104667 17.593677 6.453524 5.178958 -6.963895 5.608625 8.977005 0.263045 3.327478 14.866340 -34.729824 -2.488660 -92.282181 -46.446876 150.275969 -5.968881 7.727525 8.611522 -11.380028 -2.150785 -0.864515 -22.055114 -31.163921 6.032623 15.256479 -21.433421 -67.947638 -2.290927 5.075728 -26.308518 -5.031231 -22.172657 -1.168522 -5.805970 77.253614 -4.117596 11.009385 -10.022107 1.342644 -0.002591 -0.001220 -0.001148 7.455975 4.723751 4.275638 129.997303 65.371060 151.277181 3.700759 14.450081 6.195059 0.000310 0.001929 0.000137
-15.314425 126.908403 20.546468 -170.572793 -49.800119 -4.780200 -2.367450 25.787229 -0.357523 -0.366879 4.226957 0.017518 -0.584757 6.734754 0.015465 -1.916971 21.251266 -0.215245 6.065727 17.614732 6.432090 5.188947 -6.969233 5.608431 8.995397 0.231919 3.321351 14.855688 -34.722698 -2.481957 -92.277971 -46.458402 150.280472 -5.971855 7.712020 8.603267 -11.371291 -2.172347 -0.854898 -22.059336 -31.174270 6.032945 15.255038 -21.424417 -67.941799 -2.300292 5.065242 -26.309511 -5.033896 -22.169775 -1.173511 -5.700955 77.257864 -4.009262 11.027456 -10.015543 1.335740 0.000762 -0.000582 0.000338 7.454683 4.728788 4.274465 129.995876 65.367827 151.272294 3.700031 14.448462 6.199411 -0.001443 0.001367 -0.000639
-15.314991 126.908980 20.547110 -170.575711 -49.813254 -4.770793 -2.372935 25.802932 -0.374306 -0.368341 4.232469 0.013800 -0.580327 6.732412 0.020035 -1.925720 21.264115 -0.230893 6.025397 17.630212 6.411268 5.079772 -6.909787 5.571346 9.014848 0.199766 3.317902 14.839204 -34.715927 -2.465386 -92.272756 -46.460285 150.279281 -5.970825 7.714391 8.607076 -11.359757 -2.194107 -0.844144 -22.068472 -31.207503 6.024487 15.266424 -21.417391 -67.938824 -2.291605 5.088821 -26.304539 -5.028695 -22.157414 -1.181811 -5.659321 77.261882 -3.959230 11.015885 -10.015459 1.329112 0.000894 -0.000722 0.000396 7.453338 4.740974 4.266488 129.997622 65.361822 151.269450 3.699014 14.448682 6.204284 -0.001824 0.001634 -0.000808
-15.314400 126.908797 20.548313 -170.580315 -49.820482 -4.765812 -2.372757 25.813079 -0.384340 -0.368261 4.236043 0.012239 -0.584814 6.738163 0.017893 -1.921449 21.270404 -0.240310 5.982108 17.638635 6.391719 5.011206 -6.891267 5.550853 9.028725 0.167707 3.317263 14.828465 -34.707121 -2.462486 -92.277512 -46.448573 150.280642 -5.970787 7.720398 8.613241 -11.357586 -2.222446 -0.835420 -22.068497 -31.201752 6.027523 15.270598 -21.417820 -67.941736 -2.295445 5.087795 -26.303982 -5.029203 -22.152124 -1.179230 -5.649111 77.265465 -3.946041 11.008584 -10.014661 1.323266 -0.000037 -0.001463 -0.000016 7.452690 4.743251 4.264161 130.007128 65.356454 151.275470 3.708497 14.466684 6.188281 -0.002889 0.006440 -0.001280
-15.313544 126.908416 20.549656 -170.582808 -49.826061 -4.763569 -2.369575 25.822465 -0.392377 -0.367508 4.239228 0.010926 -0.586458 6.754764 0.004406 -1.910650 21.265357 -0.234546 5.948610 17.636807 6.383484 4.952085 -6.887034 5.535159 9.031892 0.138171 3.319888 14.823489 -34.702494 -2.462903 -92.282467 -46.449176 150.287069 -5.972508 7.721186 8.621039 -11.361486 -2.247001 -0.831923 -22.073256 -31.196317 6.039166 15.268352 -21.410685 -67.937583 -2.307670 5.087183 -26.313513 -5.040753 -22.147065 -1.171648 -5.627708 77.266294 -3.930236 10.999422 -10.013959 1.318183 -0.001007 -0.000988 -0.000446 7.450034 4.742755 4.262166 130.007589 65.352715 151.276915 3.703646 14.477836 6.188229 -0.001221 0.004222 -0.000541
-15.312399 126.907920 20.551071 -170.586869 -49.830735 -4.761700 -2.364561 25.829147 -0.394837 -0.366998 4.240702 0.010280 -0.583001 6.762111 -0.003589 -1.905216 21.271250 -0.241612 5.939005 17.623582 6.397374 4.871729 -6.878764 5.509532 9.024682 0.111154 3.327252 14.827150 -34.699583 -2.478812 -92.286881 -46.432228 150.292664 -5.971109 7.725480 8.627194 -11.372140 -2.266460 -0.820969 -22.064862 -31.208560 6.039950 15.255549 -21.396595 -67.936777 -2.316112 5.093346 -26.320322 -5.042096 -22.141945 -1.169657 -5.570710 77.266397 -3.858655 10.966633 -10.014017 1.305235 -0.001089 -0.001106 -0.000482 7.450615 4.743590 4.262250 129.996340 65.345427 151.271719 3.691113 14.479805 6.184305 0.001262 0.004225 0.000559
-15.311836 126.907728 20.552267 -170.593860 -49.838178 -4.754494 -2.359290 25.838488 -0.401481 -0.366484 4.241952 0.009526 -0.578837 6.765983 -0.008315 -1.902782 21.271923 -0.241586 5.889852 17.632934 6.371948 4.834639 -6.884459 5.500625 9.016115 0.093164 3.324836 14.827879 -34.693213 -2.479765 -92.288346 -46.447310 150.305184 -5.980035 7.708381 8.624234 -11.377513 -2.276825 -0.821421 -22.048553 -31.229859 6.032052 15.228568 -21.381830 -67.927188 -2.317709 5.096423 -26.321615 -5.040169 -22.135909 -1.176466 -5.526528 77.265141 -3.815160 10.997764 -10.011417 1.307199 0.001071 -0.000535 0.000474 7.453370 4.746588 4.260457 129.997167 65.342397 151.272565 3.691310 14.486478 6.175877 0.000389 0.005755 0.000172
